<?xml version="1.0" standalone="no"?>
<!DOCTYPE svg PUBLIC "-//W3C//DTD SVG 20010904//EN"
 "http://www.w3.org/TR/2001/REC-SVG-20010904/DTD/svg10.dtd">
<svg version="1.0" xmlns="http://www.w3.org/2000/svg"
 width="640.000000pt" height="640.000000pt" viewBox="0 0 640.000000 640.000000"
 preserveAspectRatio="xMidYMid meet">
<metadata>
Created by potrace 1.11, written by Peter Selinger 2001-2013
</metadata>
<g transform="translate(0.000000,640.000000) scale(0.100000,-0.100000)"
fill="#000000" stroke="none">
<path d="M2978 6375 c-2 -1 -34 -5 -71 -9 -85 -8 -180 -39 -230 -76 -110 -81
-160 -205 -242 -605 -46 -223 -66 -257 -170 -287 -83 -23 -88 -21 -335 137
-351 225 -471 261 -625 185 -81 -39 -212 -150 -380 -322 -214 -218 -275 -312
-280 -431 -5 -120 41 -224 220 -497 165 -252 169 -265 110 -378 -48 -92 -50
-93 -345 -152 -433 -85 -534 -154 -587 -397 -13 -60 -17 -131 -18 -313 0 -129
3 -262 7 -295 28 -227 109 -341 291 -406 39 -15 189 -49 327 -75 148 -29 237
-55 278 -82 24 -15 68 -93 83 -146 12 -42 -10 -86 -149 -299 -180 -277 -222
-363 -224 -461 -3 -139 61 -235 342 -516 228 -229 331 -299 448 -305 113 -6
205 33 464 196 211 132 292 171 360 172 48 0 54 -2 88 -41 42 -47 76 -139 110
-302 74 -347 105 -434 186 -513 56 -55 152 -105 239 -123 62 -13 580 -13 638
0 15 3 37 8 50 10 126 25 208 88 267 207 28 55 81 219 95 295 19 106 78 335
96 371 22 46 51 66 123 86 75 22 75 22 387 -176 351 -222 467 -236 674 -78
127 97 426 408 496 516 113 176 81 298 -181 690 -106 158 -132 208 -132 251 0
50 67 169 105 188 18 8 132 35 253 60 262 54 338 76 420 122 121 67 180 166
202 341 9 75 9 514 -1 573 -23 143 -59 224 -129 285 -84 74 -200 113 -531 179
-220 44 -237 52 -277 128 -52 97 -54 114 -23 178 15 30 64 112 109 181 201
307 246 401 245 506 -1 130 -66 230 -310 473 -258 257 -362 329 -484 335 -119
6 -203 -33 -547 -250 -198 -126 -287 -148 -352 -88 -24 23 -75 121 -83 161 -1
9 -8 35 -14 57 -9 35 -44 195 -57 265 -16 84 -55 203 -85 263 -12 22 -44 64
-73 92 -97 98 -219 124 -572 123 -112 0 -204 -1 -206 -3z m392 -495 c49 -13
71 -51 94 -160 9 -41 22 -105 30 -141 8 -36 16 -79 19 -95 13 -77 50 -196 82
-261 60 -122 154 -190 380 -276 266 -101 377 -77 725 154 180 119 228 143 261
131 30 -11 206 -175 244 -226 30 -41 35 -79 14 -118 -7 -13 -56 -91 -110 -174
-186 -286 -225 -380 -216 -522 8 -148 113 -403 210 -508 71 -78 218 -144 381
-171 16 -3 59 -11 95 -19 36 -8 100 -21 141 -30 109 -23 147 -45 160 -94 13
-50 12 -312 -2 -352 -11 -30 -58 -60 -113 -72 -16 -3 -39 -8 -50 -11 -11 -2
-85 -18 -165 -34 -345 -71 -442 -130 -537 -322 -151 -305 -161 -441 -50 -654
17 -33 75 -128 128 -210 175 -271 174 -269 36 -403 -165 -161 -169 -163 -246
-126 -31 15 -58 30 -61 33 -13 16 -292 192 -346 219 -195 98 -309 95 -566 -11
-274 -113 -343 -214 -414 -607 -11 -57 -55 -237 -65 -261 -6 -16 -22 -30 -42
-36 -46 -14 -307 -16 -356 -3 -57 15 -73 51 -115 256 -99 475 -147 545 -466
667 -291 112 -393 93 -747 -142 -158 -104 -219 -139 -240 -135 -7 1 -19 2 -25
3 -21 2 -199 167 -243 226 -46 60 -38 82 120 330 115 180 145 235 175 324 46
138 19 283 -97 519 -104 212 -205 269 -613 347 -100 19 -181 40 -212 56 -50
26 -59 63 -57 244 1 176 10 201 85 226 27 9 130 34 229 54 301 62 389 98 475
192 93 102 210 389 210 519 1 139 -46 245 -239 539 -96 147 -113 186 -99 225
8 25 180 201 241 247 48 37 65 29 294 -121 347 -227 447 -248 718 -149 120 44
236 106 290 155 89 81 131 183 186 448 16 80 32 154 34 165 3 11 8 34 11 50
12 54 42 103 71 113 39 13 305 15 353 2z"/>
<path d="M3167 4614 c-1 -1 -37 -4 -79 -8 -317 -25 -637 -177 -877 -415 -138
-137 -219 -250 -295 -414 -148 -315 -169 -647 -65 -987 73 -235 167 -390 348
-571 211 -210 473 -354 739 -405 468 -89 906 41 1232 366 108 107 121 123 197
238 293 443 317 1004 62 1455 -114 203 -327 422 -524 539 -122 73 -276 140
-354 155 -14 2 -28 6 -32 8 -4 3 -24 7 -45 10 -22 3 -45 8 -53 11 -24 8 -247
24 -254 18z m183 -278 c425 -53 789 -352 934 -766 80 -227 81 -508 4 -735
-100 -292 -309 -533 -584 -669 -184 -91 -336 -125 -539 -121 -177 4 -292 32
-450 110 -147 73 -237 142 -353 270 -220 241 -334 585 -298 900 21 190 80 351
189 518 177 272 482 460 797 494 30 3 56 7 58 8 5 4 187 -3 242 -9z"/>
<path d="M3061 4004 c-173 -30 -300 -100 -437 -239 -149 -151 -227 -322 -240
-525 -21 -320 150 -620 438 -770 123 -64 221 -90 357 -95 215 -6 425 80 589
242 215 213 295 503 221 798 -70 279 -305 508 -594 580 -89 22 -239 26 -334 9z
m293 -300 c213 -53 367 -241 380 -466 10 -158 -47 -302 -167 -421 -97 -96
-210 -146 -345 -151 -64 -3 -96 0 -178 18 -64 14 -179 87 -243 155 -213 229
-170 615 87 793 127 88 299 115 466 72z"/>
</g>
</svg>
